<?xml version="1.0" standalone="no"?>
<!DOCTYPE svg PUBLIC "-//W3C//DTD SVG 20010904//EN"
 "http://www.w3.org/TR/2001/REC-SVG-20010904/DTD/svg10.dtd">
<svg version="1.0" xmlns="http://www.w3.org/2000/svg"
 width="64.000000pt" height="64.000000pt" viewBox="0 0 64.000000 64.000000"
 preserveAspectRatio="xMidYMid meet">

<g transform="translate(0.000000,64.000000) scale(0.100000,-0.100000)"
fill="#000000" stroke="none">
<path d="M220 615 c-71 -23 -138 -81 -179 -155 -32 -59 -36 -72 -36 -145 0
-95 21 -150 85 -219 38 -41 110 -86 138 -86 7 0 12 15 12 35 0 32 -2 35 -29
35 -45 0 -59 8 -91 57 -17 24 -30 46 -30 49 0 13 24 0 59 -31 44 -40 73 -44
95 -13 15 21 14 22 -36 42 -36 14 -58 31 -71 53 -22 39 -25 124 -4 156 8 12
12 36 10 52 -2 17 1 37 6 45 9 13 15 13 43 1 44 -18 212 -18 256 0 28 12 34
12 43 -1 5 -8 8 -28 6 -45 -2 -16 2 -40 10 -52 21 -32 18 -117 -4 -156 -13
-22 -35 -39 -72 -53 -29 -12 -48 -25 -42 -28 6 -4 11 -37 11 -77 0 -46 4 -69
12 -69 28 0 100 45 138 86 62 68 85 124 85 215 0 67 -4 84 -35 145 -72 141
-228 206 -380 159z"/>
</g>
</svg>
