<?xml version="1.0" encoding="utf-8"?><!DOCTYPE svg PUBLIC "-//W3C//DTD SVG 1.1//EN" "http://www.w3.org/Graphics/SVG/1.1/DTD/svg11.dtd"><svg version="1.1" xmlns="http://www.w3.org/2000/svg" xmlns:xlink="http://www.w3.org/1999/xlink" width="24" height="24" viewBox="0 0 24 24" data-tags="social-twitter"><g fill="#444" transform="scale(0.0234375 0.0234375)"><path d="M805.973 299.179c34.475-21.163 57.301-50.048 68.48-86.784-33.536 17.792-66.944 29.995-100.309 36.736-29.995-32.256-67.968-48.64-113.493-48.64-44.501 0-82.091 15.616-112.768 45.995-30.507 30.592-45.909 67.755-45.909 111.147 0 13.184 1.664 24.96 4.992 34.944-131.243-4.48-239.872-58.923-325.461-163.712-14.507 25.643-21.76 51.755-21.76 78.763 0 55.509 23.424 99.499 70.187 131.797-26.667-2.261-50.176-9.003-70.187-20.053 0 39.637 11.648 72.747 34.987 101.888 23.424 28.843 53.504 47.232 90.24 55.083-13.312 3.413-27.349 5.035-41.771 5.035-13.312 0-22.741-1.109-28.331-3.541 9.813 32.299 28.331 58.496 55.083 78.549 26.667 20.139 57.344 30.763 91.819 31.701-56.832 44.587-121.813 66.645-195.328 66.645-18.005 0-30.763-0.256-38.485-1.621 72.405 47.019 153.003 70.357 242.176 70.357 91.264 0 171.904-23.125 242.091-69.376 70.187-45.995 121.984-102.741 155.264-169.557 33.451-66.731 50.005-136.192 50.005-208.725v-19.968c32.341-24.32 58.496-51.712 78.507-81.963-29.013 12.501-59.008 20.992-90.027 25.301z" /></g></svg>