<?xml version="1.0" encoding="utf-8"?>
<!DOCTYPE svg PUBLIC "-//W3C//DTD SVG 1.1//EN" "http://www.w3.org/Graphics/SVG/1.1/DTD/svg11.dtd">
<svg viewBox="0 0 200 200" xmlns="http://www.w3.org/2000/svg">
    <path fill="#FFFFFF" fill-opacity="0.2" d="M27.5,-46.6C37.8,-41.6,50,-38.7,55.4,-31.3C60.8,-23.9,59.4,-12,57,-1.4C54.6,9.2,51.1,18.3,47.9,29.6C44.7,40.8,41.9,54.2,33.9,58.6C26,63.1,13,58.6,0,58.7C-13.1,58.8,-26.1,63.3,-34,58.9C-41.9,54.4,-44.6,40.8,-49.9,29.5C-55.1,18.2,-62.9,9.1,-68.2,-3C-73.5,-15.2,-76.1,-30.3,-72.3,-44.1C-68.5,-57.9,-58.1,-70.3,-45,-73.7C-31.8,-77.1,-15.9,-71.5,-3.7,-65.1C8.6,-58.7,17.1,-51.6,27.5,-46.6Z" transform="translate(100 100)" />
</svg>
