<?xml version="1.0" encoding="utf-8"?>
<!DOCTYPE svg PUBLIC "-//W3C//DTD SVG 1.1//EN" "http://www.w3.org/Graphics/SVG/1.1/DTD/svg11.dtd">
<svg viewBox="0 0 200 200" xmlns="http://www.w3.org/2000/svg">
    <path fill="#8A3FFC" d="M30.2,-45.6C40.8,-46.2,52.2,-41.5,62,-33C71.8,-24.5,80,-12.2,78.5,-0.8C77.1,10.6,66,21.1,56.2,29.6C46.4,38.1,37.9,44.6,28.8,47.6C19.6,50.7,9.8,50.5,-0.4,51.2C-10.7,52,-21.4,53.7,-28.1,49.3C-34.9,44.8,-37.7,34.1,-43.4,24.8C-49,15.6,-57.6,7.8,-63.6,-3.5C-69.5,-14.7,-73,-29.4,-64.5,-33.7C-55.9,-38,-35.4,-31.9,-22.7,-30.1C-9.9,-28.3,-5,-30.8,2.4,-35C9.8,-39.1,19.6,-45,30.2,-45.6Z" transform="translate(100 100)" />
</svg>
