<?xml version="1.0" encoding="utf-8"?><!DOCTYPE svg PUBLIC "-//W3C//DTD SVG 1.1//EN" "http://www.w3.org/Graphics/SVG/1.1/DTD/svg11.dtd"><svg version="1.1" xmlns="http://www.w3.org/2000/svg" xmlns:xlink="http://www.w3.org/1999/xlink" width="16" height="16" viewBox="0 0 16 16" data-tags="dribbble,social"><g fill="#444" transform="scale(0.015625 0.015625)"><path d="M512 0c-282.77 0-512 229.23-512 512s229.23 512 512 512 512-229.23 512-512-229.23-512-512-512zM512 102.376c95.124 0 181.624 33.812 251.124 88.25-32.312 27.876-101.75 80.75-207.876 130.876-39.124-69.062-85.188-139.062-140.25-206.312 31.252-7.628 63.44-12.814 97.002-12.814zM337.876 142.562c31 42.124 82 116.75 135.812 212-114.938 37.688-247.75 38.938-350.5 30.688 35.312-107.25 113.562-194.874 214.688-242.688zM506.5 414.562c14.376 27.5 28.562 57.124 42.562 87.188-214.624 47.062-315.124 187.938-355.312 265.188-56.312-70.124-91.376-158-91.376-254.938 0-18.124 1.624-35.812 3.938-53.25 80.75 11.188 223.688 15.562 400.188-44.188zM584.562 584.376c38.312 93.624 71.938 195.062 91.562 302.5-50.312 22.062-105.688 34.75-164.124 34.75-97.188 0-185.25-35.312-255.5-91.812 101.688-141.376 219.562-212.69 328.062-245.438zM749.438 844.688c-5.188-29.312-27.562-138.876-80.562-279.124 124.062-18.376 222.5 5.876 246.624 12.876-18.062 109.498-79.376 204.248-166.062 266.248zM637.938 489.062c-14.876-34.562-30.876-69.876-49.562-106.25 74.124-32.062 152.876-75.876 234.438-134.75 60.75 71.438 98.812 162.812 98.812 263.938-109.25-24.25-202.75-29.562-283.688-22.938z" /></g></svg>